<?xml version="1.0" encoding="UTF-8"?>
<svg id="Layer_2" data-name="Layer 2" xmlns="http://www.w3.org/2000/svg" viewBox="0 0 250 250">
  <defs>
    <style>
      .cls-1 {
        stroke: #000;
        stroke-miterlimit: 10;
      }

      .cls-2 {
        fill: #e59393;
        stroke-width: 0px;
      }
    </style>
  </defs>
  <g id="Layer_1-2" data-name="Layer 1">
    <g>
      <rect class="cls-2" width="250" height="250"/>
      <path class="cls-1" d="M105.09,24.04c-8.22,0-15,6.78-15,15v10h-39.06c-.62-.12-1.25-.12-1.88,0h-9.53c-2.75.14-4.9,2.48-4.77,5.23s2.48,4.9,5.23,4.77h5.47l17.97,154.41c.62,6.99,6.58,12.5,13.59,12.5h95.94c7.01,0,12.97-5.51,13.59-12.5l17.97-154.41h5.47c1.8.02,3.48-.92,4.39-2.48.9-1.56.9-3.48,0-5.04-.92-1.56-2.6-2.5-4.39-2.48h-50v-10c0-8.22-6.78-15-15-15h-40ZM105.09,34.04h40c2.81,0,5,2.19,5,5v10h-50v-10c0-2.81,2.19-5,5-5ZM55.55,59.04h139.06l-17.97,153.63c-.16,1.74-2.01,3.28-3.59,3.28h-95.94c-1.58,0-3.44-1.54-3.59-3.28L55.55,59.04ZM88.15,74.08c-.21.05-.42.13-.61.2-2.28.69-3.77,2.89-3.54,5.27l8.22,114.56c.11,1.79,1.16,3.4,2.79,4.21,1.62.78,3.53.65,5.03-.36,1.49-1.03,2.31-2.77,2.16-4.56l-8.22-114.56c-.04-1.45-.73-2.79-1.83-3.69-1.12-.92-2.58-1.3-3.99-1.06ZM124.62,73.89c-.21.04-.43.1-.62.16-2.32.53-3.96,2.62-3.91,5v114.85c-.02,1.8.92,3.48,2.48,4.39,1.56.9,3.48.9,5.04,0,1.56-.92,2.5-2.6,2.48-4.39v-114.85c.06-1.45-.53-2.83-1.56-3.81-1.05-1-2.48-1.48-3.91-1.35ZM160.91,74c-.22.02-.44.07-.63.11-2.35.37-4.14,2.34-4.24,4.72l-7.88,114.58c-.14,1.79.68,3.53,2.17,4.55,1.5,1,3.41,1.13,5.03.35,1.62-.81,2.67-2.42,2.78-4.21l7.88-114.58c.16-1.44-.33-2.86-1.3-3.91-.98-1.07-2.37-1.65-3.8-1.61Z"/>
    </g>
  </g>
</svg>