<?xml version="1.0" encoding="UTF-8"?>
<svg id="Layer_2" data-name="Layer 2" xmlns="http://www.w3.org/2000/svg" viewBox="0 0 48.73 50">
  <defs>
    <style>
      .cls-1 {
        fill: #4f5b70;
      }

      .cls-1, .cls-2, .cls-3, .cls-4 {
        stroke-width: 0px;
      }

      .cls-2 {
        fill: #050a12;
      }

      .cls-3 {
        fill: #9290cc;
      }

      .cls-4 {
        fill: #fcfcfc;
      }
    </style>
  </defs>
  <g id="Layer_1-2" data-name="Layer 1">
    <g>
      <path class="cls-2" d="M12.33,40.43c.07-.02.15-.04.22-.07.94-.42,1.83-.63,2.54.44.15.23.49.34.83.56-1.32.45-2.57.87-3.81,1.29-1.16.39-2.33.76-3.47,1.18-.46.17-.89.2-1.35.06-.26-.08-.53-.13-.8-.17-.51-.06-.97.02-1.22.56,0,.11,0,.22.01.34.17.19.08.26-.13.28-.33.13-.65.27-.98.4,1.27.21,2.53.47,3.77.82.17.05.33.13.47.24,1.72-.61,3.45-1.21,5.17-1.81,1.73-.6,3.46-1.2,5.18-1.81,1.29-.46,2.62-.5,3.91-.17,2.53.63,5.04,1.36,7.55,2.05.15.04.31.05.43.24-.78.3-1.56.58-2.33.89-.23.09-.42.01-.62-.04-2.6-.77-5.24-1.36-7.86-2.01-.17-.04-.34-.07-.52-.08-.4-.03-.74.13-.8.52-.06.43.29.56.67.65,2.3.56,4.6,1.15,7.07,1.77-1.49.62-2.84,1.19-4.19,1.75,0,.03.02.05.02.08,1.96,0,3.92,0,5.88,0,.24,0,.49-.1.73-.2,5.81-2.35,11.57-4.83,17.34-7.29.21-.09.44-.15.66-.22.1-.06.19-.12.3-.17q1.51-.65,1.51-2.32,0-1.2-1.17-1.5s-.03-.06-.06-.12c.3-.13.59-.26.89-.39.16-.07.33-.12.33-.35-.01-.64-.02-1.27-.03-1.91-.85.39-1.78.56-2.67.86-1.9.65-3.81,1.26-5.71,1.92-.5.17-.6.05-.59-.44.02-1.01,0-1.02.95-1.31,2.46-.74,4.93-1.47,7.4-2.2.18-.05.38-.05.58-.08,0-.51.01-1.02.02-1.53-1.78.64-3.62,1.05-5.42,1.63-.4.13-.8.31-1.24.25-.19.09-.36.23-.59.17-.39.37-.93.35-1.41.5-.23.07-.29-.12-.3-.31-.01-.85-.03-1.71-.05-2.56,0-.24.11-.35.33-.4,2.8-.55,5.6-1.1,8.4-1.65.07-.01.15,0,.23,0,.11-.5.2-1.07,0-1.48-.15-.3-.74-.03-1.14-.04-.25,0-.35-.05-.33-.31.02-.48.02-.97.02-1.45-.05-.78-.05-1.56,0-2.34,0-.77,0-1.54,0-2.32,0-.46.01-.93,0-1.39-.01-.32.13-.4.42-.38.36.03.71.18,1.09.1.03-.63.07-1.25.1-1.88,0-.11,0-.22,0-.33l-.12-.12c-1.12.03-2.19-.29-3.28-.46-1.71-.28-3.42-.57-5.13-.87-.45-.08-.73-.83-.47-1.21.1-.15.24-.11.37-.08,1.47.28,2.94.57,4.41.86,1.17.23,2.34.46,3.5.69.21.04.42.09.63.13h.03s.02.01.02.01c-.02-.59-.03-1.18-.05-1.76-1.32-.12-2.58-.55-3.88-.76-1.55-.25-3.08-.6-4.63-.88-.33-.06-.45-.17-.37-.49-.17-.53-.34-1.07-.52-1.64,1.33.3,2.63.61,3.94.87,1.83.37,3.61.96,5.46,1.25,0-.53.02-1.05.02-1.58,0-.44,0-.68-.1-.82-.15-.03-.31-.05-.47-.08-.14-.03-.27-.05-.41-.07-.03,0-.02,0-.04,0-.03,0-.06,0-.1-.01-.68-.09-1.36-.18-2.03-.33-.57-.13-1.13-.31-1.69-.46-.55-.14-1.1-.27-1.63-.45-.04-.01-.07-.04-.11-.06-1.77-.44-3.54-.87-5.32-1.28-.36-.08-.44-.35-.57-.6-.65-1.21-.65-1.22.36-2.15.73-.68,1.47-1.34,2.21-2.01.13-.12.28-.26.46-.15.56.36,1.18.11,1.77.18.15.02.27-.04.32-.19.05-.15-.03-.27-.14-.35-.95-.65-1.9-1.3-2.85-1.94-.16-.11-.34-.07-.51-.07-2.36,0-4.72,0-7.08,0-.14,0-.3-.04-.4.02-1.03.59-2.02,1.26-2.91,2.05-.27.24-.1.45.19.47.48.04.99.14,1.45-.05.33-.14.53-.07.77.15.61.57,1.25,1.12,1.86,1.69.1.09.33.2.16.37-.52.55-.46,1.22-.44,1.88.02.47-.17.57-.61.57-1.68,0-3.37-.1-5.03.07-3.71.38-6.32,2.49-8.13,5.62-1.23,2.12-1.81,4.51-2.53,6.83-.98,3.14-1.97,6.28-2.46,9.55-.16,1.1-.34,2.19-.25,3.32.15,2.01,1.02,3.6,2.67,4.8-4.98,1.49-9.96,2.93-14.88,4.53v2.44c1.6-.5,3.13-.98,4.67-1.45,2.52-.92,5.11-1.62,7.66-2.45Z"/>
      <path class="cls-2" d="M31.05,1.93h5.97c-.99.89-1.91,1.71-2.83,2.54-.11.09-.19.1-.3,0-.92-.82-1.84-1.64-2.85-2.54Z"/>
      <path class="cls-2" d="M34.61,7.15c-.49,0-.85,0-1.22,0q-.74,0-.71-.76c.04-.92.07-.95.76-.92.24.01.37.06.43.34.1.47.42.85.73,1.35Z"/>
      <path class="cls-2" d="M15.58,25.18c.33-.68.34-1.46.7-2.12.42-1.76.99-3.47,1.56-5.19.22-.65.46-1.28.67-1.93.11-.34.29-.52.68-.48.42.05.85-.06,1.28.06.52-.08,1.04-.05,1.55-.02,2-.06,4-.11,6,.1.32-.14.64-.19.98-.08.46-.09.91-.1,1.37,0,.09-.02.19-.03.28-.05.34-.69.53-1.45.95-2.1.19-.89.92-1.44,1.48-2.23h-3.34c-.43,0-.86,0-1.29-.01-2.2.13-4.4,0-6.75.05,1.14-.94,2.27-1.61,3.6-1.75,1.39-.15,2.8-.12,4.2-.04.47,0,.94,0,1.41,0,1.32-.05,2.63-.12,3.94.09,1.13.18,1.96.78,2.5,1.79.21.36.24.59-.29.63-1.44.1-2.57.86-3.61,1.8-.17.15-.29.38-.56.38-.5.49-.86,1.1-1.29,1.64-.06.52-.17,1.02-.68,1.31-.1.62-.4,1.16-.61,1.74-.51,1.44-.91,2.92-1.5,4.32-.13.74-.39,1.45-.69,2.13-.49,2.17-2.26,3.63-4.58,3.69-1.56.04-3.11,0-4.67,0-.29,0-.58-.04-.83-.2-.54-.18-1.06-.4-1.37-.92-.9-.65-1.25-1.53-1.07-2.62Z"/>
      <path class="cls-2" d="M14.23,32.07c1.57.56,2.6,2.13,2.45,3.67-1.49-.76-2.22-2-2.45-3.67Z"/>
      <path class="cls-2" d="M25.06,40.05c-.12,0-.23,0-.35,0-2.27.04-4.55.15-6.82-.07-.7-.07-1.36-.34-1.75-1-.08-.1-.17-.2-.25-.3-.28-.2-.42-.49-.55-.79-.04-.08-.08-.19,0-.27.08-.08.19-.06.27,0,.25.16.58.21.78.47.71.36,1.47.5,2.25.5,2.29,0,4.59,0,6.88-.02.41,0,.51.1.5.5-.03.98,0,.98-.96.98Z"/>
      <path class="cls-2" d="M24.53,35.55c0,.92.22.89-.9.89-1.48,0-2.96-.02-4.45,0-.37,0-.54-.09-.5-.49.26-2.78-1.2-4.55-3.44-5.87-.08-.05-.17-.1-.25-.16-.17-.12-.42-.16-.36-.46.02-.09.01-.22.13-.24.24-.05.34.16.47.29,1.15,1.08,2.47,1.64,4.08,1.58,1.48-.05,2.96,0,4.45,0,2.75-.01,5.32-1.89,6.22-4.49.95-2.74,1.75-5.54,2.83-8.23.72-1.79,1.87-3.23,3.65-4.09,1.01-.48,1.13-.42,1.1.66-.02.8.06,1.6-.06,2.39.11.66,0,1.32.02,1.98,0,.17-.03.3-.22.36-.7.2-1.02.76-1.23,1.38-.64,1.86-1.24,3.73-1.87,5.59-.35,1.05-.73,2.09-1.1,3.13-.02.11-.07.07-.11.02-.54-.11-1.08-.22-1.62-.33-1.05.08-2.08.22-3.08.61-2.4.94-3.77,2.91-3.75,5.49Z"/>
      <path class="cls-2" d="M32.08,37.39c.93-.33,1.87-.64,2.84-.85.39-.08.57-.25.27-.64-.07-.09-.11-.21-.13-.32-.06-.37.03-.71.37-.91.2-.12.43-.09.59.09.26.29.2.61.04.92-.08.15-.18.3-.32.53.47-.13.87-.23,1.26-.36.3-.1.46-.1.45.3-.05,1.55.24,1.21-1.15,1.68-1.86.63-3.69,1.34-5.55,1.95-.98.32-2,.39-3.02.13-.23-.61-.06-1.25-.1-1.88,0-.15.11-.18.22-.23,2.42-1.03,3.68-3.02,4.44-5.41.22-.69.42-1.38.61-2.07.08-.32.2-.44.51-.26.1.06.22.06.33.11,1.1.5,2.22.65,3.38.23.32-.12.39,0,.4.31.04,1.16.05,1.14-1.06,1.49-.68.21-1.34.42-2.05.15-.29-.11-.42.04-.51.3-.21.61-.43,1.21-.68,1.8-.48,1.14-1.12,2.18-1.92,3.12.3.08.52-.12.77-.21Z"/>
      <path class="cls-2" d="M29.97,31.93c-.25,1.78-1.76,3.54-3.28,3.81-.12-2.13,1.15-3.6,3.28-3.81Z"/>
      <path class="cls-2" d="M32.78,43.95c-.14.05-.26.04-.4,0-1.83-.45-3.61-1.07-5.46-1.5,1.59.01,3.16-.04,4.69-.48.09-.02.19,0,.29.02,1.13.29,2.26.59,3.46.91-.89.43-1.74.75-2.59,1.05Z"/>
      <path class="cls-2" d="M37.3,42.11c-.08.03-.19,0-.28-.03-.99-.26-1.99-.53-3.1-.82.71-.29,1.3-.54,1.89-.78.56-.23,1.09-.37,1.73-.11.75.31,1.57.43,2.38.74-.87.33-1.74.67-2.62,1Z"/>
      <path class="cls-2" d="M47.49,37.9c-1.39,1.24-2.91.57-4.35.14,1.4-1.03,2.91-.72,4.35-.14Z"/>
      <path class="cls-2" d="M43.75,39.41c-1.54,1.32-3.11.67-4.66.11,1.52-1.2,3.09-.6,4.66-.11Z"/>
      <path class="cls-2" d="M41.22,28.15c-.42.03-.85.13-1.27.2-.29.05-.43-.03-.42-.36.02-.7.02-1.4.03-2.1l.03-2.8c0-1.01,0-2.02,0-3.02,0-.57.02-1.13,0-1.7-.01-.34.13-.46.45-.42.42.05.85.09,1.27.15.25.03.35.19.35.45-.01.58,0,1.17,0,1.75l-.02,2.78c0,.89.01,1.78.02,2.66,0,.62,0,1.25.02,1.87.01.33-.08.5-.44.53Z"/>
      <path class="cls-2" d="M44.95,27.6c-.4.05-.81.1-1.21.16-.29.04-.32-.14-.31-.36,0-.58,0-1.17.01-1.75-.01-.04,0-.07.01-.11,0-.82,0-1.64.01-2.46,0-.88,0-1.77,0-2.65,0-.52,0-1.05-.02-1.57-.02-.36.1-.48.48-.42,1.38.24,1.38.23,1.37,1.66,0,.17,0,.35,0,.52,0,.82,0,1.63,0,2.45,0,.82.01,1.65.02,2.47,0,.53,0,1.05.02,1.58.01.29-.1.43-.38.46Z"/>
      <path class="cls-2" d="M45.29,23.09c0-.82,0-1.63,0-2.45,0-.17,0-.35,0-.52,0-1.43,0-1.42-1.37-1.66-.37-.07-.49.05-.48.42.02.52.02,1.05.02,1.57,0,.88,0,1.77,0,2.65,0,.82,0,1.64-.01,2.46-.02.03-.03.07-.01.11,0,.58,0,1.17-.01,1.75,0,.21.02.4.31.36.4-.06.81-.11,1.21-.16.28-.03.39-.17.38-.46-.03-.52-.02-1.05-.02-1.58,0-.82-.01-1.65-.02-2.47Z"/>
      <path class="cls-2" d="M41.62,23.09l.02-2.78c0-.58,0-1.17,0-1.75,0-.26-.09-.41-.35-.45-.42-.06-.85-.1-1.27-.15-.32-.04-.46.07-.45.42.02.56,0,1.13,0,1.7,0,1.01,0,2.02,0,3.02l-.03,2.8c0,.7,0,1.4-.03,2.1-.01.33.13.41.42.36.42-.08.84-.17,1.27-.2.37-.03.46-.2.44-.53-.02-.62-.02-1.25-.02-1.87,0-.89-.01-1.78-.02-2.66Z"/>
      <path class="cls-2" d="M33.45,5.47c-.69-.03-.72,0-.76.92q-.03.76.71.76c.37,0,.73,0,1.22,0-.31-.5-.64-.87-.73-1.35-.06-.28-.19-.33-.43-.34Z"/>
      <path class="cls-2" d="M16.64,27.8c.32.52.83.74,1.37.92.25.16.54.2.83.2,1.56,0,3.11.04,4.67,0,2.31-.06,4.09-1.52,4.58-3.69.31-.69.57-1.39.69-2.13.59-1.41,1-2.89,1.5-4.32.2-.58.51-1.12.61-1.74.51-.29.62-.79.68-1.31.43-.54.79-1.15,1.29-1.64.27,0,.39-.23.56-.38,1.04-.94,2.16-1.7,3.61-1.8.53-.04.51-.27.29-.63-.54-1.01-1.37-1.61-2.5-1.79-1.31-.21-2.63-.13-3.94-.09-.47,0-.94,0-1.41,0-1.4-.08-2.81-.11-4.2.04-1.32.15-2.46.81-3.6,1.75,2.35-.05,4.55.07,6.75-.05.43,0,.86,0,1.29.01h3.34c-.57.8-1.29,1.35-1.48,2.23-.42.65-.61,1.41-.95,2.1-.09.02-.19.03-.28.05-.46-.1-.91-.09-1.37,0-.34-.12-.66-.06-.98.08-2-.21-4-.16-6-.1-.52-.03-1.04-.06-1.55.02-.42-.12-.85-.01-1.28-.06-.38-.04-.57.14-.68.48-.21.65-.45,1.28-.67,1.93-.57,1.71-1.14,3.43-1.56,5.19-.36.67-.37,1.45-.7,2.12-.18,1.09.17,1.97,1.07,2.62Z"/>
      <path class="cls-2" d="M16.68,35.74c.15-1.54-.88-3.11-2.45-3.67.23,1.67.95,2.91,2.45,3.67Z"/>
      <path class="cls-2" d="M25.52,38.56c-2.29.03-4.59.02-6.88.02-.79,0-1.54-.14-2.25-.5-.2-.26-.52-.31-.78-.47-.08-.05-.19-.07-.27,0-.08.08-.04.19,0,.27.14.29.28.59.55.79.08.1.17.2.25.3.4.66,1.06.93,1.75,1,2.27.23,4.54.11,6.82.07.12,0,.23,0,.35,0,.95,0,.93,0,.96-.98.01-.4-.09-.51-.5-.5Z"/>
      <path class="cls-2" d="M31.35,29.45c.54.11,1.08.22,1.62.33.05.06.09.1.11-.02.37-1.04.74-2.08,1.1-3.13.63-1.86,1.23-3.73,1.87-5.59.21-.61.53-1.18,1.23-1.38.19-.05.22-.19.22-.36-.02-.66.09-1.32-.02-1.98.12-.79.04-1.59.06-2.39.03-1.08-.09-1.15-1.1-.66-1.78.86-2.93,2.3-3.65,4.09-1.08,2.69-1.88,5.49-2.83,8.23-.9,2.6-3.48,4.47-6.22,4.49-1.48,0-2.97-.05-4.45,0-1.6.05-2.93-.5-4.08-1.58-.13-.13-.23-.34-.47-.29-.11.03-.11.15-.13.24-.06.3.2.34.36.46.08.06.16.11.25.16,2.24,1.32,3.7,3.1,3.44,5.87-.04.4.13.5.5.49,1.48-.01,2.96,0,4.45,0,1.13,0,.91.04.9-.89-.02-2.57,1.35-4.55,3.75-5.49,1-.39,2.03-.54,3.08-.61Z"/>
      <path class="cls-2" d="M33.91,32.68c.09-.26.22-.41.51-.3.71.27,1.37.06,2.05-.15,1.11-.34,1.1-.33,1.06-1.49-.01-.31-.08-.43-.4-.31-1.16.42-2.28.27-3.38-.23-.11-.05-.23-.05-.33-.11-.31-.18-.43-.06-.51.26-.18.7-.39,1.39-.61,2.07-.76,2.39-2.02,4.38-4.44,5.41-.11.05-.23.08-.22.23.04.63-.13,1.26.1,1.88,1.02.26,2.05.19,3.02-.13,1.86-.62,3.69-1.32,5.55-1.95,1.39-.47,1.1-.14,1.15-1.68.01-.4-.15-.4-.45-.3-.39.13-.8.23-1.26.36.14-.23.24-.38.32-.53.16-.31.22-.63-.04-.92-.16-.18-.39-.21-.59-.09-.34.2-.43.54-.37.91.02.11.06.23.13.32.29.38.12.56-.27.64-.97.2-1.91.52-2.84.85-.25.09-.47.29-.77.21.8-.94,1.44-1.99,1.92-3.12.25-.59.46-1.2.68-1.8Z"/>
      <path class="cls-2" d="M29.97,31.93c-2.13.21-3.4,1.69-3.28,3.81,1.52-.28,3.03-2.04,3.28-3.81Z"/>
      <path class="cls-2" d="M31.62,41.97c-1.54.44-3.11.5-4.69.48,1.85.43,3.63,1.06,5.46,1.5.14.03.26.04.4,0,.85-.3,1.7-.62,2.59-1.05-1.21-.32-2.33-.62-3.46-.91-.09-.02-.2-.05-.29-.02Z"/>
      <path class="cls-2" d="M35.81,40.48c-.59.24-1.18.49-1.89.78,1.11.3,2.11.56,3.1.82.09.02.2.06.28.03.88-.33,1.75-.66,2.62-1-.81-.32-1.63-.43-2.38-.74-.64-.27-1.17-.12-1.73.11Z"/>
      <path class="cls-2" d="M47.49,37.9c-1.44-.58-2.95-.89-4.35.14,1.44.43,2.96,1.11,4.35-.14Z"/>
      <path class="cls-2" d="M43.75,39.41c-1.57-.49-3.14-1.09-4.66.11,1.55.56,3.11,1.21,4.66-.11Z"/>
      <path class="cls-4" d="M46.03,40.86c-5.77,2.46-11.52,4.94-17.34,7.29-.23.09-.48.19-.73.2-1.96.02-3.92,0-5.88,0,0-.03-.02-.05-.02-.08,1.35-.56,2.7-1.13,4.19-1.75-2.46-.62-4.76-1.2-7.07-1.77-.38-.09-.72-.22-.67-.65.05-.39.4-.55.8-.52.17.01.35.04.52.08,2.63.65,5.27,1.25,7.86,2.01.2.06.39.14.62.04.77-.31,1.55-.6,2.33-.89-.12-.19-.29-.2-.43-.24-2.51-.69-5.02-1.41-7.55-2.05-1.3-.32-2.62-.29-3.91.17-1.72.61-3.46,1.21-5.18,1.81-1.72.6-3.45,1.2-5.17,1.81.53.39.79,1.1.68,1.73.21.01.41.03.62.04.48.02.84.22,1.1.49,2.29.23,4.57.47,6.86.64,1.37-.03,2.76.12,4.12.22.48.04.84.24,1.1.52,1.93-.07,3.86-.15,5.78-.3,1.64-.13,3.28-.31,4.92-.51,2.82-.49,5.57-1.21,7.66-3.11.04-.03.08-.04.12-.07.02-.1,0-.2.05-.31.05-.14.12-.25.18-.38,0,0-.01,0-.02,0,.01-.02.03-.03.04-.05.48-1.02,1.23-1.63,2.28-2.2,1.09-.59,1.72-1.65,2.78-2.22.01-.07.01-.14.03-.21-.22.07-.45.13-.66.22ZM17.82,48.47c-.07.02-.15.03-.23.03s-.16,0-.36,0c-.83-.1-1.73-.43-2.66-.65-.87-.21-1.71-.52-2.59-.67-.23-.04-.49-.1-.53-.45-.04-.35.17-.48.41-.62.24-.13.49-.15.74-.09,1.77.46,3.53.93,5.3,1.41.27.07.53.19.51.54-.03.34-.32.41-.58.49Z"/>
      <path class="cls-3" d="M48.44,31.1c-1.78.64-3.62,1.05-5.42,1.63-.4.13-.8.31-1.24.25.09-.25.25-.48.23-.77-.02-.31-.07-.6-.42-.68-.36-.08-.59.14-.74.43-.24.49.01.85.33,1.19-.39.37-.93.35-1.41.5-.23.07-.29-.12-.3-.31-.01-.85-.03-1.71-.05-2.56,0-.24.11-.35.33-.4,2.8-.55,5.6-1.1,8.4-1.65.07-.01.15,0,.23,0,.01.79.02,1.59.03,2.38Z"/>
      <path class="cls-4" d="M4.67,42.88c2.52-.92,5.11-1.62,7.66-2.45.07-.02.15-.04.22-.07.94-.42,1.83-.63,2.54.44.15.23.49.34.83.56-1.32.45-2.57.87-3.81,1.29-1.16.39-2.33.76-3.47,1.18-.46.17-.89.2-1.35.06-.26-.08-.53-.13-.8-.17-.51-.06-.97.02-1.22.56-.13-.5-.25-1-.6-1.41Z"/>
      <path class="cls-3" d="M48.46,33.88c-.85.39-1.78.56-2.67.86-1.9.65-3.81,1.26-5.71,1.92-.5.17-.6.05-.59-.44.02-1.01,0-1.02.95-1.31,2.46-.74,4.93-1.47,7.4-2.2.18-.05.38-.05.58-.08.01.41.02.83.03,1.24Z"/>
      <path class="cls-4" d="M39.57,11.95c-.17-.53-.34-1.06-.52-1.64,1.33.3,2.63.61,3.94.87,1.83.37,3.61.96,5.46,1.25-.07.4.27.85-.16,1.2-2.51-.54-5.02-1.08-7.54-1.6-.38-.08-.77-.3-1.18-.08Z"/>
      <path class="cls-1" d="M48.43,16.78c-1.12.03-2.19-.29-3.28-.46-1.71-.28-3.42-.57-5.13-.87-.45-.08-.73-.83-.47-1.21.1-.15.24-.11.37-.08,1.47.28,2.94.57,4.41.86,1.17.23,2.34.46,3.5.69.21.04.42.09.63.13.01.28.02.55.03.83-.02.04-.04.08-.06.12Z"/>
      <path class="cls-1" d="M39.57,11.95c.41-.21.8,0,1.18.08,2.52.52,5.03,1.06,7.54,1.6.06.11.11.22.17.32,0,.04,0,.08-.01.12-1.32-.12-2.58-.55-3.88-.76-1.55-.25-3.08-.6-4.63-.88-.33-.06-.45-.17-.37-.49Z"/>
      <path class="cls-4" d="M46.95,25.43c-.05-.78-.05-1.56,0-2.34,1.71.02,1.49-.23,1.5,1.33,0,1.01,0,1.01-1.04,1.01-.15,0-.31,0-.46,0Z"/>
      <path class="cls-1" d="M46.96,20.77c0-.46.01-.93,0-1.39-.01-.32.13-.4.42-.38.36.03.71.18,1.09.1.01.27.02.54.03.81,0,.28,0,.55,0,.83,0,.04-.02.08-.03.12-.5-.03-1-.06-1.51-.09Z"/>
      <path class="cls-4" d="M48.49,19.93c-.01-.27-.02-.54-.03-.81.03-.63.07-1.25.1-1.88.17.9.3,1.81-.06,2.7Z"/>
      <path class="cls-4" d="M48.45,14.08s0-.08.01-.12c.24.04.24.23.22.4-.06.49.16,1.02-.19,1.48-.02-.59-.03-1.18-.05-1.76Z"/>
      <path class="cls-4" d="M48.43,16.78s.04-.08.06-.12c.17.04.24.11.06.24-.04-.04-.08-.08-.12-.12Z"/>
      <path class="cls-4" d="M5.28,44.62c.17.19.08.26-.13.28,0-.11.02-.22.13-.28Z"/>
      <path class="cls-4" d="M48.47,20.87s.02-.08.03-.12l.11.07s-.09.03-.14.04Z"/>
      <path class="cls-3" d="M31.35,29.45c-1.05.08-2.08.22-3.08.61-2.4.94-3.77,2.91-3.75,5.49,0,.92.22.89-.9.89-1.48,0-2.96-.02-4.45,0-.37,0-.54-.09-.5-.49.26-2.78-1.2-4.55-3.44-5.87-.08-.05-.17-.1-.25-.16-.17-.12-.42-.16-.36-.46.02-.09.01-.22.13-.24.24-.05.34.16.47.29,1.14,1.08,2.47,1.64,4.08,1.58,1.48-.05,2.96,0,4.45,0,2.75-.01,5.32-1.89,6.22-4.49.95-2.74,1.75-5.54,2.83-8.23.72-1.79,1.87-3.23,3.65-4.09,1.01-.48,1.13-.42,1.1.66-.02.8.06,1.6-.06,2.39-1.38.22-2.38.97-2.87,2.27-.56,1.47-1.05,2.97-1.54,4.47-.59,1.79-1.15,3.59-1.72,5.38ZM21.59,34.54c.55-.04.98-.17,1.23-.66.18-.36.02-.65-.24-.88-.35-.31-.74-.42-1.21-.17.84.7.86.85.22,1.71Z"/>
      <path class="cls-4" d="M20.46,15.52c.52-.08,1.04-.05,1.55-.02-.89,2.34-1.88,4.65-2.54,7.08-.1.38-.14.53.32.52,1.81-.02,3.62-.01,5.43-.02,1.19,0,2.38,0,3.57,0-.13.74-.39,1.45-.69,2.13-3,0-6,0-9-.03-.34,0-.44.16-.5.43-.24,1.02-.51,2.04-.59,3.09-.54-.18-1.06-.4-1.37-.92.17-.85.35-1.69.54-2.62h-1.61c.33-.68.34-1.46.7-2.12.33,0,.66,0,.99.04.42.06.56-.13.68-.51.37-1.25.79-2.48,1.19-3.71.38-1.15.96-2.2,1.33-3.35Z"/>
      <path class="cls-3" d="M25.22,23.08c-1.81,0-3.62,0-5.43.02-.46,0-.42-.15-.32-.52.66-2.43,1.65-4.73,2.54-7.08,2-.06,4-.11,6,.1-.08.19-.17.37-.25.56-.05.08-.13.15-.16.23-.52,1.28-.99,2.57-1.4,3.89-.3.95-.81,1.81-.98,2.81ZM23.47,21.09c1.11.01,1.93-.78,1.95-1.88.01-1.07-.76-1.88-1.79-1.89-.99,0-2.02.97-2.01,1.91,0,1.01.85,1.85,1.86,1.86Z"/>
      <path class="cls-1" d="M18.02,28.71c.08-1.05.35-2.07.59-3.09.06-.27.16-.43.5-.43,3,.02,6,.02,9,.03-.49,2.17-2.26,3.63-4.58,3.69-1.56.04-3.11,0-4.67,0-.29,0-.58-.04-.83-.2Z"/>
      <path class="cls-4" d="M31.35,29.45c.57-1.79,1.13-3.59,1.72-5.38.49-1.5.98-3,1.54-4.47.5-1.3,1.49-2.05,2.87-2.27.11.66,0,1.32.02,1.98,0,.17-.03.3-.22.36-.7.2-1.02.76-1.23,1.38-.64,1.86-1.24,3.73-1.87,5.59-.35,1.05-.73,2.09-1.1,3.13-.04,0-.08,0-.11.02l-1.62-.33Z"/>
      <path class="cls-1" d="M25.22,23.08c.16-.99.68-1.86.98-2.81.41-1.31.88-2.61,1.4-3.89.03-.09.11-.16.16-.23,0,.37.09.71.5.81.3.08.6,0,.8-.23.35-.41.2-.82-.07-1.21.46-.09.91-.1,1.37,0-.54.86-.36,1.36.55,1.5-.1.62-.4,1.16-.61,1.74-.51,1.44-.91,2.92-1.5,4.32-1.19,0-2.38,0-3.57,0Z"/>
      <path class="cls-4" d="M30.9,9.39c1.32-.05,2.63-.12,3.94.09,1.13.18,1.96.78,2.5,1.79-.67.18-1.36.21-2.02.51-1.06.49-1.73,1.35-2.46,2.18-.3-.47-.8-.5-1.28-.59.19-.89.92-1.44,1.48-2.23h-3.34c.31-.64.81-1.14,1.17-1.74Z"/>
      <path class="cls-1" d="M27.73,39.93c.69-.39,1.44-.66,2.09-1.12.53-.37,1-.8,1.49-1.2.3.08.52-.12.77-.21.93-.33,1.87-.64,2.84-.85.39-.08.57-.25.27-.64-.07-.09-.11-.21-.13-.32-.06-.37.03-.71.37-.91.2-.12.43-.09.59.09.26.29.2.61.04.92-.08.15-.18.3-.32.53.47-.13.87-.23,1.26-.36.3-.1.47-.1.45.3-.05,1.55.24,1.21-1.15,1.68-1.86.63-3.69,1.34-5.55,1.95-.98.32-2,.39-3.02.13Z"/>
      <path class="cls-3" d="M20.46,15.52c-.36,1.15-.95,2.2-1.33,3.35-.4,1.24-.82,2.47-1.19,3.71-.11.38-.26.57-.68.51-.33-.04-.66-.03-.99-.04.42-1.76.99-3.47,1.56-5.19.22-.65.46-1.28.67-1.93.11-.34.29-.52.68-.48.42.05.85-.06,1.28.06Z"/>
      <path class="cls-4" d="M28.43,11.12c-2.2.13-4.4,0-6.75.05,1.14-.94,2.27-1.61,3.6-1.75,1.39-.15,2.8-.12,4.2-.04-.41.55-.99.99-1.05,1.74Z"/>
      <path class="cls-1" d="M24.71,40.05c-2.27.04-4.55.15-6.82-.07-.7-.07-1.36-.34-1.75-1,0-.16.13-.21.24-.18.73.2,1.45.1,2.2.04,1.53-.12,3.07-.03,4.61-.03.27,0,.57.01.66.27.16.47.5.72.87.98Z"/>
      <path class="cls-4" d="M26.93,42.45c1.59.01,3.16-.04,4.69-.48.09-.02.19,0,.29.02,1.13.29,2.26.59,3.46.91-.89.43-1.74.75-2.59,1.05-.14.05-.26.04-.4,0-1.83-.45-3.61-1.07-5.46-1.5Z"/>
      <path class="cls-4" d="M31.05,1.93h5.97c-.99.89-1.91,1.71-2.83,2.54-.11.1-.19.1-.3,0-.92-.82-1.84-1.64-2.85-2.54Z"/>
      <path class="cls-4" d="M29.97,31.93c-.25,1.78-1.76,3.54-3.28,3.81-.12-2.13,1.15-3.6,3.28-3.81Z"/>
      <path class="cls-4" d="M33.92,41.26c.71-.29,1.3-.54,1.89-.78.56-.23,1.09-.37,1.73-.11.75.31,1.57.43,2.38.74-.87.33-1.74.67-2.62,1-.08.03-.19,0-.28-.03-.99-.26-1.99-.53-3.1-.82Z"/>
      <path class="cls-4" d="M39.59,23.09c.68,0,1.36,0,2.03,0,0,.89.01,1.78.02,2.66-.69.16-1.38.2-2.08.14,0-.93.02-1.87.03-2.8Z"/>
      <path class="cls-1" d="M39.56,25.89c.7.06,1.39.02,2.08-.14,0,.62,0,1.25.02,1.87.01.33-.08.5-.44.53-.42.03-.85.13-1.27.2-.29.05-.43-.03-.42-.36.02-.7.02-1.4.03-2.1Z"/>
      <path class="cls-4" d="M43.46,23.09h1.83c0,.82.01,1.65.02,2.47-.59.09-1.17.13-1.77.09-.03-.03-.06-.07-.09-.1,0-.82,0-1.64.01-2.46Z"/>
      <path class="cls-1" d="M41.64,20.31c-.69-.08-1.37-.16-2.06-.24,0-.57.02-1.13,0-1.7-.01-.34.13-.46.45-.42.42.05.85.09,1.27.15.25.03.35.19.35.45-.01.58,0,1.17,0,1.75Z"/>
      <path class="cls-4" d="M14.23,32.07c1.57.56,2.6,2.13,2.45,3.67-1.49-.76-2.22-2-2.45-3.67Z"/>
      <path class="cls-1" d="M43.54,25.65c.59.04,1.18,0,1.77-.09,0,.53,0,1.05.02,1.58.01.29-.1.43-.38.46-.4.05-.81.1-1.21.16-.29.04-.32-.14-.31-.36,0-.58,0-1.17.01-1.75,0,0,.05.01.05.01h.05Z"/>
      <path class="cls-1" d="M45.29,20.64c-.61-.07-1.22-.13-1.82-.2,0-.52,0-1.05-.02-1.57-.02-.36.1-.48.48-.42,1.38.24,1.38.23,1.37,1.66,0,.17,0,.35,0,.52Z"/>
      <path class="cls-1" d="M15.58,25.17h1.61c-.19.93-.37,1.78-.54,2.62-.9-.65-1.25-1.53-1.07-2.62Z"/>
      <path class="cls-1" d="M32.88,14.07s-.02-.07-.02-.11c.72-.83,1.4-1.7,2.46-2.18.66-.3,1.35-.33,2.02-.51.21.35.24.59-.29.63-1.44.1-2.57.86-3.61,1.8-.17.15-.29.38-.56.38Z"/>
      <path class="cls-4" d="M30.63,15.47c.35-.05.64.13.95.25-.06.52-.17,1.02-.68,1.31-.91-.15-1.09-.65-.55-1.5.09-.02.19-.03.28-.05Z"/>
      <path class="cls-1" d="M16.38,38.08c-.19.18-.53.23-.5.6-.28-.2-.42-.49-.55-.79-.04-.08-.08-.19,0-.27.08-.08.19-.06.27,0,.26.16.58.21.78.47Z"/>
      <path class="cls-2" d="M17.23,48.5c-.83-.1-1.73-.43-2.66-.64-.87-.21-1.71-.52-2.59-.67-.23-.04-.49-.1-.53-.45-.04-.35.17-.48.41-.62.24-.13.49-.15.74-.09,1.77.46,3.53.93,5.3,1.41.27.07.53.19.51.54-.03.34-.32.41-.58.49-.07.02-.15.03-.23.03-.08,0-.16,0-.36,0Z"/>
      <path class="cls-1" d="M21.59,34.54c.64-.86.62-1.01-.22-1.71.47-.25.86-.13,1.21.17.26.23.41.52.24.88-.25.49-.68.62-1.23.66Z"/>
      <path class="cls-4" d="M23.47,21.09c-1.01-.01-1.85-.85-1.86-1.86,0-.93,1.02-1.91,2.01-1.91,1.03,0,1.81.82,1.79,1.89-.01,1.1-.84,1.9-1.95,1.88ZM24.29,19.27c-.02-.45-.34-.77-.74-.77-.43,0-.75.34-.74.8.02.49.32.7.76.69.46,0,.69-.29.72-.72Z"/>
      <path class="cls-3" d="M24.29,19.27c-.02.42-.26.71-.72.72-.44,0-.75-.2-.76-.69-.02-.46.31-.8.74-.8.41,0,.73.32.74.77Z"/>
    </g>
  </g>
</svg>